<svg width="18" height="18" viewBox="0 0 18 18" fill="none" xmlns="http://www.w3.org/2000/svg">
<path fill-rule="evenodd" clip-rule="evenodd" d="M7.00012 2C4.2387 2 2.00012 4.23858 2.00012 7C2.00012 9.76142 4.2387 12 7.00012 12C9.76155 12 12.0001 9.76142 12.0001 7C12.0001 4.23858 9.76155 2 7.00012 2ZM0.00012207 7C0.00012207 3.13401 3.13413 0 7.00012 0C10.8661 0 14.0001 3.13401 14.0001 7C14.0001 8.88579 13.2544 10.5974 12.0418 11.8561C12.4339 11.5549 12.9981 11.5838 13.3571 11.9429L17.7071 16.2929C18.0977 16.6834 18.0977 17.3166 17.7071 17.7071C17.3166 18.0976 16.6834 18.0976 16.2929 17.7071L11.9429 13.3571C11.5839 12.998 11.5549 12.4339 11.8561 12.0418C10.5975 13.2543 8.88587 14 7.00012 14C3.13413 14 0.00012207 10.866 0.00012207 7Z" fill="black"/>
</svg>
